PathFileType	4	(X/Y/Z)	s01c0401.trc
DataRate	CameraRate	NumFrames	NumMarkers	Units	OrigDataRate	OrigDataStartFrame	OrigNumFrames
200	200	6	48	mm	200	0	2000
Frame#	Time	racr			lacr			c7			jug			rlel			rdr			llel			ldr			s2			lic			ric			lasi			rasi			rpsi			lpsi			rgt			lgt			rth1			rth2			rth3			rth4			rlfc			rsh1			rsh2			rsh3			rsh4			rlmal			rmmal			rcal			rtoe			rmt5			lth1			lth2			lth4			lth3			llfc			lsh1			lsh2			lsh3			lsh4			llmal			lmmal			lcal			ltoe			lmt5			SBIKE			LBIKE			RBIKE			
		X1	Y1	Z1	X2	Y2	Z2	X3	Y3	Z3	X4	Y4	Z4	X5	Y5	Z5	X6	Y6	Z6	X7	Y7	Z7	X8	Y8	Z8	X9	Y9	Z9	X10	Y10	Z10	X11	Y11	Z11	X12	Y12	Z12	X13	Y13	Z13	X14	Y14	Z14	X15	Y15	Z15	X16	Y16	Z16	X17	Y17	Z17	X18	Y18	Z18	X19	Y19	Z19	X20	Y20	Z20	X21	Y21	Z21	X22	Y22	Z22	X23	Y23	Z23	X24	Y24	Z24	X25	Y25	Z25	X26	Y26	Z26	X27	Y27	Z27	X28	Y28	Z28	X29	Y29	Z29	X30	Y30	Z30	X31	Y31	Z31	X32	Y32	Z32	X33	Y33	Z33	X34	Y34	Z34	X35	Y35	Z35	X36	Y36	Z36	X37	Y37	Z37	X38	Y38	Z38	X39	Y39	Z39	X40	Y40	Z40	X41	Y41	Z41	X42	Y42	Z42	X43	Y43	Z43	X44	Y44	Z44	X45	Y45	Z45	X46	Y46	Z46	X47	Y47	Z47	X48	Y48	Z48	
0	0.0000	472.396362	1370.204590	-91.528076	471.437958	1370.528076	-407.712219	430.024567	1427.491333	-240.495895	456.244904	1269.165649	-245.705536	563.402771	1107.643799	-9.234221	712.165039	894.283752	-35.550583	568.734375	1109.855713	-473.599976	709.645630	896.016602	-439.703949	-59.642021	1140.666504	-242.908264	134.414276	1163.438110	-418.586243	105.997093	1135.323608	-90.040375	114.290451	1109.322510	-394.968658	129.660080	1088.241333	-121.728905	-26.292303	1174.522095	-190.341797	-32.538036	1185.110596	-295.064758	45.067326	1014.428162	-65.405846	55.741657	1036.324951	-452.039764	122.245941	901.231079	-49.441044	176.586731	838.334534	-53.058460	231.552109	767.050476	-65.250648	219.885132	872.709229	-63.214073	274.022125	670.217590	-86.582710	191.381622	586.051270	-55.498867	141.987946	516.986206	-59.437332	82.684563	451.134033	-72.090363	178.514801	489.596680	-98.591759	-0.881124	355.508118	-91.413284	0.000000	0.000000	-0.000000	-56.767036	338.300964	-145.811005	195.473480	238.172775	-137.027359	88.575752	241.399765	-65.344856	157.288422	953.453613	-463.014984	243.267212	939.359924	-460.074890	254.415421	993.229309	-454.428741	325.560547	917.561218	-445.122406	417.508728	861.437317	-423.914612	0.000000	0.000000	-0.000000	320.224182	685.738708	-438.217041	288.332458	607.275330	-421.218048	373.573181	667.953857	-411.823090	246.818665	486.423859	-400.981964	276.963074	498.518188	-318.369232	198.629425	441.476593	-361.398346	475.852051	455.903809	-370.361877	374.039520	422.222656	-436.166992	0.000000	0.000000	-0.000000	-11.713925	84.814003	-453.776367	-20.368349	80.998123	-53.542751	
1	0.0050	472.417603	1370.171143	-91.561180	471.427124	1370.496826	-407.731873	430.023254	1427.487427	-240.513794	456.239899	1269.218506	-245.727493	563.411072	1107.620605	-9.231428	712.165161	894.276184	-35.537613	568.709290	1109.865601	-473.655609	709.616394	896.034790	-439.742828	-59.646046	1140.683228	-242.926865	134.416748	1163.445312	-418.618591	105.982941	1135.348633	-90.028435	114.295425	1109.318604	-394.977325	129.670578	1088.273438	-121.720520	-26.281237	1174.535522	-190.357147	-32.505817	1185.114624	-295.096313	45.092274	1014.417175	-65.434837	55.754677	1036.334351	-452.048828	122.260979	901.256775	-49.444771	176.615570	838.354065	-53.076168	231.579773	767.061829	-65.257034	219.911697	872.724915	-63.241875	274.037201	670.260437	-86.591095	191.425186	586.074768	-55.509182	142.020691	517.018250	-59.439709	82.692093	451.166016	-72.113655	178.527573	489.608948	-98.603249	-0.872013	355.555237	-91.436943	0.000000	0.000000	-0.000000	-56.764866	338.361084	-145.811584	195.447235	238.196182	-137.021896	88.581009	241.448639	-65.354805	157.302917	953.487610	-462.991119	243.275864	939.394531	-460.018738	254.429642	993.161682	-454.421875	325.575745	917.554810	-445.101349	417.495911	861.405029	-423.905029	0.000000	0.000000	-0.000000	320.227570	685.673340	-438.207336	288.339020	607.246765	-421.214203	373.556213	667.929626	-411.800507	246.890945	486.459137	-401.007721	276.916321	498.446716	-318.376831	198.640182	441.433350	-361.413391	475.863617	455.873505	-370.374756	374.102539	421.797028	-435.574921	0.000000	0.000000	-0.000000	-11.704158	84.807518	-453.781525	-20.353769	80.982819	-53.557663	
2	0.0100	472.419006	1370.162231	-91.564545	471.421082	1370.510864	-407.751099	430.044250	1427.477661	-240.532166	456.220917	1269.221313	-245.747742	563.412598	1107.607910	-9.233411	712.170410	894.276611	-35.534267	568.707214	1109.858032	-473.695404	709.633606	896.035522	-439.760071	-59.655373	1140.683838	-242.934921	134.441437	1163.207153	-418.696625	105.680222	1135.573120	-89.350601	114.284363	1109.320190	-394.992584	129.666840	1088.289551	-121.723824	-26.274698	1174.549683	-190.373337	-32.902077	1185.270386	-294.898743	45.086327	1014.434570	-65.413437	55.768814	1036.338745	-452.062042	122.270912	901.283081	-49.450985	176.604630	838.387939	-53.076420	231.590836	767.082764	-65.260239	219.896896	872.751587	-63.234898	274.049744	670.279175	-86.590790	191.452896	586.112854	-55.512581	142.047684	517.051514	-59.434505	82.689850	451.206390	-72.113960	178.530472	489.639282	-98.618996	-0.879046	355.588806	-91.428268	0.000000	0.000000	-0.000000	-56.764877	338.405701	-145.825165	195.441437	238.203308	-137.033615	88.575890	241.493073	-65.344803	157.311508	953.521179	-462.952179	243.261795	939.392334	-459.982513	254.431503	993.154907	-454.366669	325.554688	917.525330	-445.078278	417.498444	861.376465	-423.885803	0.000000	0.000000	-0.000000	320.214874	685.642090	-438.186066	288.335632	607.196777	-421.204071	373.558624	667.893005	-411.800323	247.130798	486.406403	-400.999817	276.941559	498.426422	-318.374298	198.529434	441.480438	-361.463104	475.871704	455.850739	-370.372375	374.255096	421.706329	-435.476532	0.000000	0.000000	-0.000000	-11.699355	84.803459	-453.776581	-20.343578	80.977150	-53.558720	
3	0.0150	472.414948	1370.152222	-91.571625	471.411072	1370.482056	-407.792664	430.101013	1426.548218	-240.746063	456.220581	1269.234009	-245.796768	563.291138	1107.601074	-9.146912	712.176453	894.268250	-35.532249	568.716553	1109.849731	-473.738861	709.562012	897.549194	-439.874023	-59.585278	1140.782227	-243.397064	134.460953	1162.962280	-418.768890	105.884354	1135.885986	-88.716721	114.282883	1109.333984	-394.992310	129.661102	1088.315796	-121.729202	-27.338793	1176.069702	-188.895538	-33.220497	1185.398804	-294.742828	45.082905	1014.442810	-65.422722	55.776127	1036.343506	-452.061920	121.883141	900.716614	-49.736076	176.628967	838.398254	-53.084003	231.693192	767.053650	-65.386223	219.972137	872.874695	-63.135582	274.070587	670.308716	-86.596626	191.559387	586.107483	-55.502151	142.052200	517.066772	-59.444859	82.689789	451.252411	-72.109955	179.125610	490.262085	-98.777802	-0.866601	355.612762	-91.438347	0.000000	0.000000	-0.000000	-56.772869	338.467468	-145.816925	195.329056	238.269440	-136.928345	88.545837	241.535629	-65.353279	157.321701	953.552856	-462.913635	243.275589	939.410034	-459.931671	255.232635	992.923889	-457.664276	325.548096	917.493286	-445.042877	417.482086	861.353760	-423.870392	0.000000	0.000000	-0.000000	327.585663	683.559998	-440.356903	288.332916	607.145813	-421.190460	374.098480	668.106323	-412.687012	247.420746	486.377045	-400.966644	276.982025	498.544495	-318.393921	198.363586	441.536774	-361.502563	475.879944	455.828705	-370.373016	374.388123	421.570984	-435.314606	0.000000	0.000000	-0.000000	-11.695229	84.795708	-453.773834	-20.347637	80.994072	-53.545921	
4	0.0200	472.327057	1370.079468	-91.612137	471.334076	1370.130737	-407.938446	429.955841	1426.651489	-240.519073	456.185913	1269.202026	-245.934418	563.341125	1107.561035	-9.205930	712.333679	894.262451	-35.519855	568.609924	1109.678101	-473.754059	709.447815	897.563293	-439.837219	-59.769897	1140.876709	-243.142548	134.484039	1162.733154	-418.837860	105.897034	1135.838867	-88.932251	114.332054	1109.167358	-394.879517	129.700821	1088.350220	-121.734184	-27.342196	1176.022095	-188.900696	-33.589588	1185.542358	-294.559723	45.024731	1014.401062	-65.030678	55.884426	1036.373047	-452.293579	121.886017	900.750061	-49.727993	176.594620	838.378723	-53.016819	231.671463	766.994446	-65.297890	219.967667	872.929810	-63.137871	274.130249	670.335388	-86.646873	191.527893	586.126160	-55.636475	142.090607	517.048218	-59.524246	82.707756	451.265594	-72.110069	179.174149	490.245483	-98.733597	-0.878839	355.584320	-91.503883	0.000000	0.000000	-0.000000	-56.828480	338.462891	-145.814072	195.312592	238.224533	-136.924881	88.546227	241.535172	-65.342628	157.330276	953.582581	-462.868256	243.282715	939.297119	-459.908142	255.066025	992.975220	-456.526154	325.578644	917.365845	-445.036285	417.184143	861.020142	-424.321136	0.000000	0.000000	-0.000000	327.397614	683.222839	-440.342590	288.327911	607.089233	-421.173492	371.103302	667.215881	-412.170990	247.688843	486.324738	-400.918121	276.985596	498.457275	-318.396179	198.194107	441.591583	-361.541351	475.887207	455.730499	-370.339783	374.521210	421.552948	-435.332123	0.000000	0.000000	-0.000000	-11.694200	84.789162	-453.770203	-20.407480	80.828255	-53.578880	
5	0.0250	472.322266	1370.040771	-91.604912	471.351593	1370.325806	-407.892883	0.000000	0.000000	-0.000000	456.215210	1269.210815	-245.886566	563.266907	1107.601318	-9.215934	712.419006	894.497681	-35.460659	568.586243	1109.669189	-473.768738	709.406067	897.587708	-439.812622	-59.820362	1140.914062	-243.088974	134.504364	1162.515747	-418.899048	105.882217	1135.868530	-88.935120	114.261536	1109.172974	-394.962585	129.740692	1088.379639	-121.733070	-27.312048	1176.182861	-188.937317	-33.974319	1185.693481	-294.368103	45.041454	1014.555054	-65.659409	55.866508	1036.368042	-452.007690	121.904282	900.762451	-49.737934	176.669556	838.477905	-53.093498	231.744308	767.125427	-65.449272	219.999481	872.940186	-63.168732	274.125153	670.357483	-86.594528	191.583115	586.166016	-55.477673	142.141098	517.110046	-59.364849	82.706894	451.312408	-72.105072	179.079330	490.305023	-98.793427	-0.881371	355.621368	-91.505913	0.000000	0.000000	-0.000000	-56.835583	338.541809	-145.724075	195.296387	238.260010	-136.926788	88.547318	241.589630	-65.349426	157.340164	953.608643	-462.820312	243.277817	939.357971	-459.847687	253.920135	993.783813	-455.985077	325.581909	917.393127	-445.012360	419.653717	861.181152	-422.773865	0.000000	0.000000	-0.000000	327.441681	683.230042	-440.327637	288.323639	607.026428	-421.152985	371.105743	667.181824	-412.172668	247.959183	486.268646	-400.869598	277.022919	498.441345	-318.408295	198.031677	441.635315	-361.573395	475.895691	455.731079	-370.302490	374.656677	421.534027	-435.348969	0.000000	0.000000	-0.000000	-11.695146	84.774345	-453.766693	-20.390551	80.887939	-53.792496	
